<?xml version="1.0" standalone="no"?>
<!DOCTYPE svg PUBLIC "-//W3C//DTD SVG 20010904//EN"
 "http://www.w3.org/TR/2001/REC-SVG-20010904/DTD/svg10.dtd">
<svg version="1.0" xmlns="http://www.w3.org/2000/svg"
 width="181.000000pt" height="181.000000pt" viewBox="0 0 181.000000 181.000000"
 preserveAspectRatio="xMidYMid meet">

<g transform="translate(0.000000,181.000000) scale(0.100000,-0.100000)"
fill="#000000" stroke="none">
<path d="M522 1780 c-54 -33 -62 -67 -62 -259 l0 -169 -177 -4 c-197 -3 -229
-12 -258 -68 -22 -42 -22 -717 -1 -759 31 -60 53 -66 254 -69 l182 -4 0 -164
c0 -186 8 -221 62 -254 31 -19 49 -20 388 -20 384 1 384 1 421 56 17 26 19 48
19 207 l0 177 170 0 c185 0 216 6 260 55 l25 27 0 368 0 369 -29 30 c-42 44
-79 51 -263 51 l-163 0 0 181 c0 285 27 269 -442 269 -336 0 -355 -1 -386 -20z
m726 -312 l2 -228 224 0 c195 0 225 -2 230 -16 8 -20 8 -628 0 -648 -5 -14
-35 -16 -230 -16 l-224 0 -2 -223 -3 -222 -335 0 -335 0 -3 222 -2 223 -228 2
-227 3 0 335 0 335 228 3 227 2 0 224 c0 122 3 226 7 229 4 4 155 6 337 5
l331 -3 3 -227z"/>
</g>
</svg>
