<?xml version="1.0" standalone="no"?>
<!DOCTYPE svg PUBLIC "-//W3C//DTD SVG 20010904//EN"
 "http://www.w3.org/TR/2001/REC-SVG-20010904/DTD/svg10.dtd">
<svg version="1.0" xmlns="http://www.w3.org/2000/svg"
 width="191.000000pt" height="181.000000pt" viewBox="0 0 191.000000 181.000000"
 preserveAspectRatio="xMidYMid meet">

<g transform="translate(0.000000,181.000000) scale(0.100000,-0.100000)"
fill="#000000" stroke="none">
<path d="M1113 1799 c-158 -26 -327 -128 -432 -261 -44 -56 -51 -60 -142 -91
-206 -71 -351 -211 -409 -395 -27 -86 -34 -201 -18 -286 l13 -70 -47 -48
c-131 -135 -89 -345 92 -467 82 -54 177 -84 268 -85 73 -1 74 -1 109 38 35 37
35 40 29 98 -3 32 -9 70 -12 83 l-6 25 58 -30 c67 -33 99 -32 137 5 12 13 88
127 167 254 l145 230 5 -148 c6 -165 15 -192 74 -216 28 -12 42 -12 96 1 35 8
65 12 67 10 3 -2 -32 -70 -77 -151 -75 -132 -82 -150 -77 -186 6 -47 29 -76
74 -95 27 -12 43 -12 102 1 174 36 284 90 371 181 104 108 146 238 137 424 -5
98 -3 110 26 195 31 87 32 96 32 255 0 155 -2 170 -28 245 -120 343 -425 539
-754 484z m252 -114 c332 -87 521 -491 394 -843 -17 -48 -31 -102 -31 -119 0
-18 1 -81 2 -140 2 -86 -2 -121 -19 -173 -42 -129 -138 -216 -293 -265 -84
-26 -164 -36 -161 -20 1 6 61 115 133 243 73 128 130 235 127 238 -2 3 -78
-14 -167 -36 -89 -22 -164 -39 -166 -37 -2 2 -7 136 -11 298 -5 185 -12 294
-18 293 -5 0 -113 -166 -240 -367 -126 -202 -233 -367 -236 -367 -4 0 -63 41
-131 90 -96 71 -124 86 -126 73 -1 -10 11 -92 26 -181 33 -185 35 -178 -51
-169 -173 18 -320 172 -286 300 12 45 58 100 98 117 39 16 43 31 25 82 -26 69
-30 226 -9 304 46 171 203 310 407 360 63 16 68 19 104 70 76 111 201 203 334
245 70 23 215 24 295 4z"/>
</g>
</svg>
