<?xml version="1.0" standalone="no"?>
<!DOCTYPE svg PUBLIC "-//W3C//DTD SVG 20010904//EN"
 "http://www.w3.org/TR/2001/REC-SVG-20010904/DTD/svg10.dtd">
<svg version="1.0" xmlns="http://www.w3.org/2000/svg"
 width="194.000000pt" height="183.000000pt" viewBox="0 0 194.000000 183.000000"
 preserveAspectRatio="xMidYMid meet">

<g transform="translate(0.000000,183.000000) scale(0.100000,-0.100000)"
fill="#000000" stroke="none">
<path d="M1325 1803 c-66 -13 -138 -27 -160 -29 -138 -18 -674 -118 -700 -131
-70 -36 -105 -88 -114 -172 l-6 -55 -104 -18 c-121 -22 -163 -39 -196 -82 -52
-70 -52 -71 34 -577 44 -255 84 -475 89 -489 6 -14 28 -42 50 -62 54 -49 99
-55 229 -30 l102 19 6 -28 c11 -50 80 -116 140 -135 l54 -17 353 62 c194 34
358 67 364 72 6 5 18 7 26 4 28 -11 277 42 322 69 49 29 102 102 112 154 8 41
-1 130 -20 215 -8 34 -25 127 -37 207 -12 80 -28 165 -35 190 -8 25 -14 58
-14 74 0 41 -49 306 -62 341 -7 16 -11 41 -10 55 4 38 -35 236 -54 276 -9 19
-30 46 -48 61 -72 60 -132 65 -321 26z m232 -93 c17 -10 37 -28 43 -40 13 -25
50 -220 41 -220 -3 0 -78 -13 -166 -29 -88 -16 -163 -26 -166 -23 -8 9 -53
281 -48 286 5 6 206 43 239 45 14 0 39 -8 57 -19z m-328 -456 c40 -229 69
-420 64 -424 -11 -9 -282 -55 -288 -48 -3 3 -20 86 -37 184 -17 99 -35 185
-41 192 -5 6 -24 12 -41 12 -27 0 -47 -16 -142 -112 -61 -62 -116 -121 -123
-130 -8 -11 31 3 100 36 63 30 115 53 116 52 1 -1 14 -73 29 -160 21 -120 33
-166 49 -184 l21 -25 192 33 c106 19 193 32 195 29 7 -8 86 -483 82 -487 -9
-9 -600 -111 -645 -111 -68 -1 -100 32 -114 114 -14 78 0 74 -164 44 -171 -31
-199 -27 -218 32 -22 69 -157 895 -150 922 10 42 40 54 204 83 145 26 153 29
148 49 -3 11 -8 46 -12 78 -6 55 -6 57 27 90 29 29 46 36 104 46 39 7 178 32
310 55 132 24 245 44 250 45 6 1 43 -184 84 -415z m462 -56 c14 -79 22 -144
17 -146 -25 -11 -324 -59 -329 -54 -8 9 -52 272 -47 277 3 3 236 48 329 64 3
1 17 -63 30 -141z m71 -400 c14 -79 25 -144 23 -146 -8 -9 -331 -58 -336 -51
-7 12 -52 270 -47 274 2 2 75 17 163 33 88 16 163 30 166 31 3 0 17 -63 31
-141z m58 -328 c9 -53 9 -78 0 -104 -12 -36 -55 -81 -87 -90 -43 -12 -214 -38
-219 -33 -7 6 -47 228 -42 232 2 3 187 38 330 64 3 0 11 -30 18 -69z"/>
</g>
</svg>
