<?xml version="1.0" standalone="no"?>
<!DOCTYPE svg PUBLIC "-//W3C//DTD SVG 20010904//EN"
 "http://www.w3.org/TR/2001/REC-SVG-20010904/DTD/svg10.dtd">
<svg version="1.0" xmlns="http://www.w3.org/2000/svg"
 width="181.000000pt" height="181.000000pt" viewBox="0 0 181.000000 181.000000"
 preserveAspectRatio="xMidYMid meet">

<g transform="translate(0.000000,181.000000) scale(0.100000,-0.100000)"
fill="#000000" stroke="none">
<path d="M766 1780 c-93 -16 -183 -34 -199 -41 -57 -24 -81 -97 -57 -179 10
-33 9 -36 -22 -59 -116 -87 -220 -225 -264 -349 l-23 -67 -65 -10 c-45 -7 -73
-18 -91 -35 -44 -41 -46 -73 -15 -262 36 -221 37 -223 71 -252 40 -34 79 -40
138 -22 l50 15 36 -49 c83 -112 219 -211 351 -254 l52 -17 6 -60 c8 -71 48
-125 99 -134 49 -8 397 51 427 73 14 10 34 36 44 57 18 36 18 42 4 96 l-16 58
37 24 c58 39 141 126 186 197 39 60 95 184 95 209 0 6 20 11 48 11 62 0 111
27 136 74 l19 38 -27 172 c-34 213 -40 237 -69 264 -37 35 -78 42 -139 26
l-53 -14 -19 28 c-11 15 -53 61 -95 103 -81 80 -169 136 -270 170 l-61 21 0
41 c0 76 -50 142 -115 151 -16 2 -106 -9 -199 -24z m199 -89 c3 -6 8 -46 12
-90 l6 -80 41 -7 c158 -26 323 -140 412 -284 20 -33 39 -60 42 -60 3 0 39 9
80 21 47 13 78 17 84 11 10 -10 58 -286 58 -334 0 -26 -1 -27 -88 -33 l-88 -7
-11 -60 c-27 -143 -128 -290 -260 -378 -43 -29 -77 -59 -77 -66 1 -8 10 -43
19 -79 13 -46 15 -69 8 -76 -14 -14 -327 -64 -347 -56 -12 5 -16 21 -16 69 0
99 -3 102 -73 117 -78 15 -188 69 -252 122 -57 47 -136 142 -154 187 -8 18
-16 32 -18 32 -3 0 -38 -10 -78 -21 -41 -12 -80 -19 -88 -16 -16 6 -74 338
-62 356 3 6 30 11 59 11 105 0 112 4 127 74 29 140 139 297 262 377 32 21 63
39 69 41 8 3 5 29 -12 87 -13 48 -19 86 -14 91 8 8 283 57 331 59 12 1 24 -3
28 -8z"/>
<path d="M837 1280 c-119 -20 -244 -123 -288 -237 -30 -80 -30 -196 0 -276 29
-75 111 -164 184 -200 190 -93 417 -17 510 172 30 61 32 73 32 166 0 87 -3
107 -27 157 -52 112 -159 195 -282 217 -65 12 -61 12 -129 1z m177 -183 c51
-29 92 -81 107 -137 46 -174 -134 -333 -297 -261 -94 42 -137 107 -138 207 0
169 179 273 328 191z"/>
</g>
</svg>
