<?xml version="1.0" standalone="no"?>
<!DOCTYPE svg PUBLIC "-//W3C//DTD SVG 20010904//EN"
 "http://www.w3.org/TR/2001/REC-SVG-20010904/DTD/svg10.dtd">
<svg version="1.0" xmlns="http://www.w3.org/2000/svg"
 width="181.000000pt" height="181.000000pt" viewBox="0 0 181.000000 181.000000"
 preserveAspectRatio="xMidYMid meet">

<g transform="translate(0.000000,181.000000) scale(0.100000,-0.100000)"
fill="#000000" stroke="none">
<path d="M465 1621 c-295 -134 -427 -199 -444 -218 -23 -27 -24 -30 -18 -163
16 -338 93 -631 212 -810 60 -90 202 -223 303 -284 85 -51 218 -105 322 -132
57 -14 65 -14 138 5 320 83 578 294 691 565 69 166 118 414 128 646 6 143 5
146 -18 173 -17 20 -142 81 -434 213 -225 102 -421 188 -435 190 -18 3 -149
-52 -445 -185z m836 -99 l394 -179 -3 -99 c-7 -276 -75 -562 -174 -728 -106
-179 -356 -353 -573 -399 -70 -14 -148 7 -293 79 -202 100 -315 209 -402 389
-79 162 -134 417 -142 669 l-3 89 390 177 c215 98 395 178 401 179 6 1 188
-79 405 -177z"/>
<path d="M688 1182 l-188 -86 0 -45 c0 -120 46 -302 95 -381 49 -78 167 -160
269 -188 107 -30 309 103 371 243 31 69 65 234 65 313 l0 59 -192 87 c-106 47
-202 86 -213 85 -11 -1 -104 -40 -207 -87z m362 -87 c79 -35 144 -66 145 -67
2 -2 -3 -43 -10 -91 -27 -180 -84 -269 -211 -329 -60 -28 -69 -30 -104 -19
-59 17 -149 83 -181 131 -39 59 -71 165 -72 247 l-2 66 135 63 c74 34 140 63
146 63 7 1 76 -28 154 -64z"/>
</g>
</svg>
