<?xml version="1.0" standalone="no"?>
<!DOCTYPE svg PUBLIC "-//W3C//DTD SVG 20010904//EN"
 "http://www.w3.org/TR/2001/REC-SVG-20010904/DTD/svg10.dtd">
<svg version="1.0" xmlns="http://www.w3.org/2000/svg"
 width="181.000000pt" height="182.000000pt" viewBox="0 0 181.000000 182.000000"
 preserveAspectRatio="xMidYMid meet">

<g transform="translate(0.000000,182.000000) scale(0.100000,-0.100000)"
fill="#000000" stroke="none">
<path d="M748 1805 c-359 -68 -637 -333 -725 -691 -25 -105 -23 -305 6 -414
41 -157 147 -339 258 -443 28 -26 30 -31 20 -63 -12 -40 2 -97 35 -139 43 -55
47 -55 560 -55 440 0 476 2 514 19 68 31 106 110 85 174 -10 31 -8 35 57 104
132 141 219 330 242 526 37 318 -118 653 -386 838 -69 47 -202 107 -289 129
-105 28 -275 34 -377 15z m348 -115 c294 -74 527 -316 588 -613 38 -183 7
-387 -83 -547 -31 -56 -99 -146 -139 -183 l-30 -29 -42 63 c-28 41 -40 66 -34
74 5 7 33 43 61 81 89 117 143 298 128 432 -18 159 -77 284 -190 398 -202 202
-474 249 -734 124 -119 -57 -234 -172 -291 -291 -41 -86 -70 -204 -70 -285 0
-131 69 -314 155 -412 l47 -53 -43 -65 -42 -65 -40 38 c-96 93 -183 253 -213
392 -21 99 -18 262 6 357 74 288 300 515 583 585 103 25 280 25 383 -1z m-44
-300 c162 -50 290 -183 333 -345 19 -73 19 -183 1 -251 -15 -56 -64 -153 -100
-197 l-23 -28 -37 57 -38 56 31 62 c42 83 56 161 40 234 -21 104 -77 190 -157
240 -148 95 -328 76 -452 -48 -75 -75 -103 -143 -104 -256 -1 -73 2 -87 36
-155 l37 -74 -38 -58 -39 -59 -41 57 c-59 83 -83 154 -89 259 -5 105 8 177 50
261 57 112 199 227 316 254 70 17 205 12 274 -9z m-51 -302 c112 -63 132 -213
41 -310 l-25 -28 191 -287 c106 -159 192 -297 192 -309 0 -44 0 -44 -495 -44
-495 0 -495 0 -495 44 0 12 86 150 192 309 l191 288 -31 32 c-39 41 -52 75
-52 139 0 66 35 128 93 162 56 34 142 36 198 4z"/>
</g>
</svg>
