<?xml version="1.0" standalone="no"?>
<!DOCTYPE svg PUBLIC "-//W3C//DTD SVG 20010904//EN"
 "http://www.w3.org/TR/2001/REC-SVG-20010904/DTD/svg10.dtd">
<svg version="1.0" xmlns="http://www.w3.org/2000/svg"
 width="175.000000pt" height="171.000000pt" viewBox="0 0 175.000000 171.000000"
 preserveAspectRatio="xMidYMid meet">

<g transform="translate(0.000000,171.000000) scale(0.100000,-0.100000)"
fill="#000000" stroke="none">
<path d="M1196 1700 c-256 -29 -475 -136 -645 -316 -64 -67 -91 -106 -125
-177 -25 -51 -50 -118 -57 -149 l-12 -56 -74 -37 c-308 -152 -377 -565 -137
-810 86 -87 194 -138 318 -151 187 -19 393 92 483 261 l32 60 81 17 c207 43
409 198 536 412 121 203 178 501 143 753 -13 95 -25 122 -64 145 -65 37 -331
64 -479 48z m374 -122 c54 -13 55 -14 63 -58 4 -25 6 -121 4 -215 -6 -203 -23
-280 -97 -432 -86 -175 -209 -306 -355 -379 -75 -37 -200 -68 -251 -62 -30 4
-32 1 -48 -47 -32 -104 -110 -191 -216 -243 -50 -24 -66 -27 -165 -27 -101 0
-115 2 -170 29 -201 99 -285 337 -191 542 47 103 174 203 279 220 36 6 37 8
37 46 0 22 7 68 16 102 65 251 335 471 653 531 91 17 356 13 441 -7z"/>
<path d="M435 671 c-78 -35 -114 -104 -102 -192 10 -76 94 -149 172 -149 38 0
104 31 132 61 83 91 42 248 -76 288 -47 15 -79 14 -126 -8z m125 -113 c26 -28
25 -58 -1 -92 -17 -22 -28 -26 -57 -24 -65 6 -92 77 -46 122 23 24 79 20 104
-6z"/>
</g>
</svg>
